<svg width="1393" height="608" viewBox="0 0 1393 608" fill="none" xmlns="http://www.w3.org/2000/svg">
<rect width="1393" height="608" fill="#F8F7FB"/>
<path d="M153.329 352.243C146.58 348.392 146.609 338.653 153.38 334.842L245.913 282.77C248.97 281.05 252.706 281.057 255.756 282.789L349.511 336.039C356.308 339.899 356.247 349.714 349.404 353.49L255.753 405.165C252.702 406.848 248.994 406.822 245.966 405.095L153.329 352.243Z" fill="#6A9BBF"/>
<path d="M154.547 326.546C147.798 322.695 147.826 312.956 154.598 309.145L247.131 257.073C250.188 255.353 253.923 255.36 256.974 257.092L350.729 310.342C357.525 314.202 357.465 324.017 350.622 327.793L256.971 379.468C253.919 381.151 250.211 381.125 247.184 379.398L154.547 326.546Z" fill="#CDDBF3"/>
<path d="M155.286 301.044C148.537 297.194 148.566 287.454 155.337 283.643L247.87 231.571C250.927 229.851 254.662 229.858 257.713 231.591L351.468 284.84C358.265 288.7 358.204 298.515 351.361 302.291L257.71 353.966C254.658 355.65 250.95 355.623 247.923 353.896L155.286 301.044Z" fill="#96F8D5"/>
<path d="M154.547 272.586C147.798 268.735 147.826 258.996 154.598 255.185L247.131 203.113C250.188 201.392 253.923 201.4 256.974 203.132L350.729 256.382C357.525 260.242 357.465 270.057 350.622 273.833L256.971 325.507C253.919 327.191 250.211 327.165 247.184 325.438L154.547 272.586Z" fill="#4C35D6"/>
<path d="M432 370V230H521.4V249H453.2V289.8H515.4V308.6H453.2V351H521.4V370H432ZM551.522 370V270.8H569.922L571.722 285.6H572.722C575.389 280.8 579.522 276.733 585.122 273.4C590.722 270.067 597.189 268.4 604.522 268.4C616.655 268.4 625.789 272.067 631.922 279.4C638.055 286.733 641.122 297.533 641.122 311.8V370H619.922V314.4C619.922 306.133 618.189 299.733 614.722 295.2C611.255 290.667 605.789 288.4 598.322 288.4C590.989 288.4 584.855 290.867 579.922 295.8C575.122 300.733 572.722 307.867 572.722 317.2V370H551.522ZM716.644 372.4C703.577 372.4 693.177 369.333 685.444 363.2C677.71 357.067 673.31 348.933 672.244 338.8H694.044C694.844 343.467 697.177 347.267 701.044 350.2C705.044 353.133 710.31 354.6 716.844 354.6C723.11 354.6 727.91 353.333 731.244 350.8C734.71 348.133 736.444 345.067 736.444 341.6C736.444 336.533 734.377 333.067 730.244 331.2C726.244 329.333 720.31 327.933 712.444 327C705.644 326.2 699.444 324.667 693.844 322.4C688.377 320 684.044 316.8 680.844 312.8C677.644 308.667 676.044 303.533 676.044 297.4C676.044 288.733 679.444 281.733 686.244 276.4C693.044 271.067 702.51 268.4 714.644 268.4C726.777 268.4 736.177 271.133 742.844 276.6C749.51 282.067 753.377 289.533 754.444 299H734.044C733.51 295 731.444 291.867 727.844 289.6C724.244 287.2 719.777 286 714.444 286C708.977 286 704.644 287.067 701.444 289.2C698.244 291.2 696.644 293.867 696.644 297.2C696.644 304.4 704.377 308.8 719.844 310.4C727.177 311.2 733.71 312.6 739.444 314.6C745.177 316.467 749.71 319.467 753.044 323.6C756.377 327.6 758.044 333.267 758.044 340.6C758.177 346.6 756.444 352 752.844 356.8C749.377 361.6 744.51 365.4 738.244 368.2C732.11 371 724.91 372.4 716.644 372.4ZM836.966 372.4C827.366 372.4 818.899 370.267 811.566 366C804.232 361.6 798.499 355.533 794.366 347.8C790.232 340.067 788.166 331.067 788.166 320.8C788.166 310.4 790.166 301.267 794.166 293.4C798.299 285.533 804.032 279.4 811.366 275C818.832 270.6 827.432 268.4 837.166 268.4C846.766 268.4 855.032 270.6 861.966 275C868.899 279.267 874.232 285 877.966 292.2C881.832 299.4 883.766 307.333 883.766 316C883.766 317.333 883.766 318.8 883.766 320.4C883.766 321.867 883.699 323.533 883.566 325.4H808.966C809.632 334.6 812.632 341.6 817.966 346.4C823.299 351.067 829.566 353.4 836.766 353.4C843.032 353.4 847.966 352.133 851.566 349.6C855.299 346.933 858.032 343.333 859.766 338.8H881.166C878.766 348.267 873.766 356.267 866.166 362.8C858.566 369.2 848.832 372.4 836.966 372.4ZM836.966 286.8C830.432 286.8 824.632 288.8 819.566 292.8C814.499 296.667 811.232 302.133 809.766 309.2H862.566C862.032 302.533 859.432 297.133 854.766 293C850.099 288.867 844.166 286.8 836.966 286.8ZM900.688 370V270.8H918.288L920.088 282.4H921.088C922.821 278.267 925.488 274.933 929.088 272.4C932.688 269.733 936.954 268.4 941.888 268.4C946.688 268.4 950.888 269.6 954.487 272C958.088 274.4 960.754 277.867 962.488 282.4H963.288C965.021 278.4 967.754 275.067 971.488 272.4C975.221 269.733 979.821 268.4 985.288 268.4C992.621 268.4 998.154 270.8 1001.89 275.6C1005.75 280.4 1007.69 287.133 1007.69 295.8V370H987.288V300C987.288 296 986.421 292.867 984.688 290.6C983.088 288.2 980.488 287 976.888 287C973.288 287 970.288 288.4 967.888 291.2C965.621 294 964.488 297.933 964.488 303V370H943.888V300C943.888 296 943.088 292.867 941.488 290.6C939.888 288.2 937.288 287 933.688 287C930.088 287 927.088 288.4 924.688 291.2C922.288 294 921.088 297.933 921.088 303V370H900.688ZM1081.01 372.4C1073.68 372.4 1067.48 370.933 1062.41 368C1057.48 364.933 1053.68 360.733 1051.01 355.4H1049.81L1048.01 370H1029.81V226H1051.01V283.6C1053.41 279.6 1057.21 276.067 1062.41 273C1067.61 269.933 1073.81 268.4 1081.01 268.4C1089.28 268.4 1096.68 270.4 1103.21 274.4C1109.74 278.267 1114.88 284.067 1118.61 291.8C1122.48 299.533 1124.41 309.067 1124.41 320.4C1124.41 331.733 1122.48 341.267 1118.61 349C1114.88 356.733 1109.74 362.6 1103.21 366.6C1096.68 370.467 1089.28 372.4 1081.01 372.4ZM1076.61 352.2C1084.21 352.2 1090.48 349.6 1095.41 344.4C1100.48 339.067 1103.01 331.133 1103.01 320.6C1103.01 309.933 1100.48 301.933 1095.41 296.6C1090.48 291.267 1084.21 288.6 1076.61 288.6C1069.01 288.6 1062.68 291.267 1057.61 296.6C1052.68 301.8 1050.21 309.733 1050.21 320.4C1050.21 330.933 1052.68 338.867 1057.61 344.2C1062.68 349.533 1069.01 352.2 1076.61 352.2ZM1149.13 370V351.6H1182.33V251C1182.33 246.6 1180.2 244.4 1175.93 244.4H1151.93V226H1179.73C1187.46 226 1193.33 228.067 1197.33 232.2C1201.46 236.2 1203.53 242.067 1203.53 249.8V351.6H1236.93V370H1149.13Z" fill="#010101"/>
</svg>
