<svg width="1393" height="608" viewBox="0 0 1393 608" fill="none" xmlns="http://www.w3.org/2000/svg">
<rect width="1393" height="608" fill="#4C35D6"/>
<path d="M155.4 405C151.6 405 148.067 404.5 144.8 403.5C141.6 402.5 138.667 401 136 399C133.4 396.933 131.067 394.4 129 391.4L136.4 382.9C139.667 387.567 142.8 390.8 145.8 392.6C148.8 394.4 152.367 395.3 156.5 395.3C159.033 395.3 161.333 394.9 163.4 394.1C165.467 393.3 167.1 392.2 168.3 390.8C169.5 389.4 170.1 387.8 170.1 386C170.1 384.8 169.9 383.667 169.5 382.6C169.1 381.533 168.467 380.567 167.6 379.7C166.8 378.833 165.733 378.033 164.4 377.3C163.133 376.567 161.633 375.933 159.9 375.4C158.167 374.8 156.167 374.3 153.9 373.9C150.3 373.167 147.167 372.2 144.5 371C141.833 369.8 139.6 368.3 137.8 366.5C136 364.7 134.667 362.667 133.8 360.4C132.933 358.067 132.5 355.467 132.5 352.6C132.5 349.8 133.1 347.2 134.3 344.8C135.567 342.4 137.267 340.333 139.4 338.6C141.6 336.8 144.167 335.433 147.1 334.5C150.033 333.5 153.2 333 156.6 333C160.2 333 163.5 333.467 166.5 334.4C169.5 335.333 172.167 336.733 174.5 338.6C176.833 340.4 178.767 342.633 180.3 345.3L172.7 352.8C171.367 350.6 169.867 348.767 168.2 347.3C166.533 345.767 164.7 344.633 162.7 343.9C160.7 343.1 158.567 342.7 156.3 342.7C153.7 342.7 151.433 343.1 149.5 343.9C147.567 344.7 146.033 345.833 144.9 347.3C143.833 348.7 143.3 350.367 143.3 352.3C143.3 353.7 143.567 355 144.1 356.2C144.633 357.333 145.433 358.367 146.5 359.3C147.633 360.167 149.133 360.967 151 361.7C152.867 362.367 155.1 362.967 157.7 363.5C161.367 364.3 164.633 365.333 167.5 366.6C170.367 367.8 172.8 369.233 174.8 370.9C176.8 372.567 178.3 374.433 179.3 376.5C180.367 378.567 180.9 380.8 180.9 383.2C180.9 387.667 179.867 391.533 177.8 394.8C175.733 398.067 172.8 400.6 169 402.4C165.2 404.133 160.667 405 155.4 405ZM213.802 405C209.469 405 205.502 403.8 201.902 401.4C198.369 399 195.536 395.733 193.402 391.6C191.269 387.467 190.202 382.8 190.202 377.6C190.202 372.333 191.269 367.667 193.402 363.6C195.602 359.467 198.536 356.233 202.202 353.9C205.936 351.567 210.102 350.4 214.702 350.4C217.436 350.4 219.936 350.8 222.202 351.6C224.469 352.4 226.436 353.533 228.102 355C229.836 356.4 231.236 358.033 232.302 359.9C233.436 361.767 234.136 363.767 234.402 365.9L232.102 365.1V351.5H242.502V404H232.102V391.5L234.502 390.8C234.102 392.6 233.269 394.367 232.002 396.1C230.802 397.767 229.236 399.267 227.302 400.6C225.436 401.933 223.336 403 221.002 403.8C218.736 404.6 216.336 405 213.802 405ZM216.502 395.5C219.636 395.5 222.402 394.733 224.802 393.2C227.202 391.667 229.069 389.567 230.402 386.9C231.802 384.167 232.502 381.067 232.502 377.6C232.502 374.2 231.802 371.167 230.402 368.5C229.069 365.833 227.202 363.733 224.802 362.2C222.402 360.667 219.636 359.9 216.502 359.9C213.436 359.9 210.702 360.667 208.302 362.2C205.969 363.733 204.102 365.833 202.702 368.5C201.369 371.167 200.702 374.2 200.702 377.6C200.702 381.067 201.369 384.167 202.702 386.9C204.102 389.567 205.969 391.667 208.302 393.2C210.702 394.733 213.436 395.5 216.502 395.5ZM272.912 404L250.712 351.5H261.812L277.812 390.8L275.912 391.7L293.012 351.5H303.612L280.312 404H272.912ZM336.071 405C330.671 405 325.871 403.867 321.671 401.6C317.538 399.267 314.271 396.1 311.871 392.1C309.538 388.1 308.371 383.5 308.371 378.3C308.371 374.167 309.038 370.4 310.371 367C311.704 363.6 313.538 360.667 315.871 358.2C318.271 355.667 321.104 353.733 324.371 352.4C327.704 351 331.304 350.3 335.171 350.3C338.571 350.3 341.738 350.967 344.671 352.3C347.604 353.567 350.138 355.333 352.271 357.6C354.471 359.867 356.138 362.567 357.271 365.7C358.471 368.767 359.038 372.133 358.971 375.8L358.871 380.2H315.971L313.671 372H349.971L348.471 373.7V371.3C348.271 369.1 347.538 367.133 346.271 365.4C345.004 363.667 343.404 362.3 341.471 361.3C339.538 360.3 337.438 359.8 335.171 359.8C331.571 359.8 328.538 360.5 326.071 361.9C323.604 363.233 321.738 365.233 320.471 367.9C319.204 370.5 318.571 373.733 318.571 377.6C318.571 381.267 319.338 384.467 320.871 387.2C322.404 389.867 324.571 391.933 327.371 393.4C330.171 394.867 333.404 395.6 337.071 395.6C339.671 395.6 342.071 395.167 344.271 394.3C346.538 393.433 348.971 391.867 351.571 389.6L356.771 396.9C355.171 398.5 353.204 399.9 350.871 401.1C348.604 402.3 346.171 403.267 343.571 404C341.038 404.667 338.538 405 336.071 405ZM374.365 405.1C372.165 405.1 370.465 404.467 369.265 403.2C368.065 401.867 367.465 400 367.465 397.6C367.465 395.4 368.098 393.6 369.365 392.2C370.632 390.8 372.298 390.1 374.365 390.1C376.565 390.1 378.265 390.767 379.465 392.1C380.665 393.367 381.265 395.2 381.265 397.6C381.265 399.8 380.632 401.6 379.365 403C378.098 404.4 376.432 405.1 374.365 405.1ZM452.846 405C447.913 405 443.346 404.1 439.146 402.3C435.013 400.5 431.379 398 428.246 394.8C425.179 391.533 422.779 387.733 421.046 383.4C419.379 379 418.546 374.2 418.546 369C418.546 363.8 419.379 359.033 421.046 354.7C422.779 350.3 425.179 346.5 428.246 343.3C431.379 340.033 435.013 337.5 439.146 335.7C443.346 333.9 447.913 333 452.846 333C457.779 333 462.313 333.9 466.446 335.7C470.646 337.5 474.279 340.033 477.346 343.3C480.479 346.567 482.879 350.4 484.546 354.8C486.279 359.133 487.146 363.867 487.146 369C487.146 374.133 486.279 378.9 484.546 383.3C482.879 387.633 480.479 391.433 477.346 394.7C474.279 397.967 470.646 400.5 466.446 402.3C462.313 404.1 457.779 405 452.846 405ZM452.846 394.5C456.246 394.5 459.346 393.867 462.146 392.6C465.013 391.333 467.479 389.567 469.546 387.3C471.613 384.967 473.213 382.267 474.346 379.2C475.546 376.067 476.146 372.667 476.146 369C476.146 365.333 475.546 361.967 474.346 358.9C473.213 355.767 471.613 353.067 469.546 350.8C467.479 348.467 465.013 346.667 462.146 345.4C459.346 344.133 456.246 343.5 452.846 343.5C449.446 343.5 446.313 344.133 443.446 345.4C440.646 346.667 438.179 348.433 436.046 350.7C433.979 352.967 432.379 355.667 431.246 358.8C430.113 361.867 429.546 365.267 429.546 369C429.546 372.667 430.113 376.067 431.246 379.2C432.379 382.333 433.979 385.033 436.046 387.3C438.179 389.567 440.646 391.333 443.446 392.6C446.313 393.867 449.446 394.5 452.846 394.5ZM499.169 404V351.5H509.569V368L508.569 364C509.302 361.467 510.535 359.167 512.269 357.1C514.069 355.033 516.102 353.4 518.369 352.2C520.702 351 523.102 350.4 525.569 350.4C526.702 350.4 527.769 350.5 528.769 350.7C529.835 350.9 530.669 351.133 531.269 351.4L528.569 362.6C527.769 362.267 526.869 362 525.869 361.8C524.935 361.533 524.002 361.4 523.069 361.4C521.269 361.4 519.535 361.767 517.869 362.5C516.269 363.167 514.835 364.133 513.569 365.4C512.369 366.6 511.402 368.033 510.669 369.7C509.935 371.3 509.569 373.067 509.569 375V404H499.169ZM561.536 427C557.803 427 554.069 426.4 550.336 425.2C546.669 424.067 543.703 422.567 541.436 420.7L545.236 412.7C546.569 413.7 548.136 414.567 549.936 415.3C551.736 416.1 553.636 416.7 555.636 417.1C557.636 417.567 559.603 417.8 561.536 417.8C565.203 417.8 568.269 417.2 570.736 416C573.203 414.8 575.069 413.033 576.336 410.7C577.603 408.367 578.236 405.467 578.236 402V391.9L579.336 392.6C579.003 394.667 577.903 396.667 576.036 398.6C574.236 400.467 571.969 402 569.236 403.2C566.503 404.4 563.703 405 560.836 405C555.836 405 551.369 403.833 547.436 401.5C543.569 399.1 540.503 395.867 538.236 391.8C535.969 387.667 534.836 382.967 534.836 377.7C534.836 372.433 535.936 367.767 538.136 363.7C540.403 359.567 543.469 356.333 547.336 354C551.269 351.6 555.669 350.4 560.536 350.4C562.536 350.4 564.469 350.667 566.336 351.2C568.203 351.667 569.936 352.367 571.536 353.3C573.136 354.167 574.569 355.133 575.836 356.2C577.103 357.267 578.136 358.4 578.936 359.6C579.736 360.8 580.236 361.933 580.436 363L578.236 363.8V351.5H588.536V400.8C588.536 405 587.903 408.7 586.636 411.9C585.436 415.167 583.669 417.9 581.336 420.1C579.003 422.367 576.169 424.067 572.836 425.2C569.503 426.4 565.736 427 561.536 427ZM561.936 395.5C565.203 395.5 568.103 394.733 570.636 393.2C573.169 391.667 575.136 389.567 576.536 386.9C577.936 384.233 578.636 381.167 578.636 377.7C578.636 374.233 577.903 371.167 576.436 368.5C575.036 365.767 573.069 363.633 570.536 362.1C568.069 360.567 565.203 359.8 561.936 359.8C558.736 359.8 555.869 360.6 553.336 362.2C550.869 363.733 548.903 365.867 547.436 368.6C546.036 371.267 545.336 374.3 545.336 377.7C545.336 381.1 546.036 384.167 547.436 386.9C548.903 389.567 550.869 391.667 553.336 393.2C555.869 394.733 558.736 395.5 561.936 395.5ZM623.177 405C618.844 405 614.877 403.8 611.277 401.4C607.744 399 604.911 395.733 602.777 391.6C600.644 387.467 599.577 382.8 599.577 377.6C599.577 372.333 600.644 367.667 602.777 363.6C604.977 359.467 607.911 356.233 611.577 353.9C615.311 351.567 619.477 350.4 624.077 350.4C626.811 350.4 629.311 350.8 631.577 351.6C633.844 352.4 635.811 353.533 637.477 355C639.211 356.4 640.611 358.033 641.677 359.9C642.811 361.767 643.511 363.767 643.777 365.9L641.477 365.1V351.5H651.877V404H641.477V391.5L643.877 390.8C643.477 392.6 642.644 394.367 641.377 396.1C640.177 397.767 638.611 399.267 636.677 400.6C634.811 401.933 632.711 403 630.377 403.8C628.111 404.6 625.711 405 623.177 405ZM625.877 395.5C629.011 395.5 631.777 394.733 634.177 393.2C636.577 391.667 638.444 389.567 639.777 386.9C641.177 384.167 641.877 381.067 641.877 377.6C641.877 374.2 641.177 371.167 639.777 368.5C638.444 365.833 636.577 363.733 634.177 362.2C631.777 360.667 629.011 359.9 625.877 359.9C622.811 359.9 620.077 360.667 617.677 362.2C615.344 363.733 613.477 365.833 612.077 368.5C610.744 371.167 610.077 374.2 610.077 377.6C610.077 381.067 610.744 384.167 612.077 386.9C613.477 389.567 615.344 391.667 617.677 393.2C620.077 394.733 622.811 395.5 625.877 395.5ZM666.259 404V351.5H676.559V362.3L674.759 363.5C675.425 361.167 676.725 359.033 678.659 357.1C680.592 355.1 682.892 353.5 685.559 352.3C688.225 351.033 690.959 350.4 693.759 350.4C697.759 350.4 701.092 351.2 703.759 352.8C706.425 354.333 708.425 356.7 709.759 359.9C711.092 363.1 711.759 367.133 711.759 372V404H701.459V372.7C701.459 369.7 701.059 367.233 700.259 365.3C699.459 363.3 698.225 361.867 696.559 361C694.892 360.067 692.825 359.667 690.359 359.8C688.359 359.8 686.525 360.133 684.859 360.8C683.192 361.4 681.725 362.267 680.459 363.4C679.259 364.533 678.292 365.867 677.559 367.4C676.892 368.867 676.559 370.467 676.559 372.2V404H671.459C670.592 404 669.725 404 668.859 404C667.992 404 667.125 404 666.259 404ZM727.431 404V351.5H737.731V404H727.431ZM732.431 339.9C730.231 339.9 728.531 339.333 727.331 338.2C726.131 337.067 725.531 335.467 725.531 333.4C725.531 331.467 726.131 329.9 727.331 328.7C728.598 327.5 730.298 326.9 732.431 326.9C734.631 326.9 736.331 327.467 737.531 328.6C738.731 329.733 739.331 331.333 739.331 333.4C739.331 335.333 738.698 336.9 737.431 338.1C736.231 339.3 734.565 339.9 732.431 339.9ZM771.063 405C766.663 405 762.697 404.233 759.163 402.7C755.63 401.167 752.697 398.9 750.363 395.9L757.363 389.9C759.363 392.233 761.53 393.933 763.863 395C766.263 396 768.963 396.5 771.963 396.5C773.163 396.5 774.263 396.367 775.263 396.1C776.33 395.767 777.23 395.3 777.963 394.7C778.763 394.1 779.363 393.4 779.763 392.6C780.163 391.733 780.363 390.8 780.363 389.8C780.363 388.067 779.73 386.667 778.463 385.6C777.797 385.133 776.73 384.633 775.263 384.1C773.863 383.5 772.03 382.9 769.763 382.3C765.897 381.3 762.73 380.167 760.263 378.9C757.797 377.633 755.897 376.2 754.563 374.6C753.563 373.333 752.83 371.967 752.363 370.5C751.897 368.967 751.663 367.3 751.663 365.5C751.663 363.3 752.13 361.3 753.063 359.5C754.063 357.633 755.397 356.033 757.063 354.7C758.797 353.3 760.797 352.233 763.063 351.5C765.397 350.767 767.863 350.4 770.463 350.4C772.93 350.4 775.363 350.733 777.763 351.4C780.23 352.067 782.497 353.033 784.563 354.3C786.63 355.567 788.363 357.067 789.763 358.8L783.863 365.3C782.597 364.033 781.197 362.933 779.663 362C778.197 361 776.697 360.233 775.163 359.7C773.63 359.167 772.23 358.9 770.963 358.9C769.563 358.9 768.297 359.033 767.163 359.3C766.03 359.567 765.063 359.967 764.263 360.5C763.53 361.033 762.963 361.7 762.563 362.5C762.163 363.3 761.963 364.2 761.963 365.2C762.03 366.067 762.23 366.9 762.563 367.7C762.963 368.433 763.497 369.067 764.163 369.6C764.897 370.133 765.997 370.7 767.463 371.3C768.93 371.9 770.797 372.467 773.063 373C776.397 373.867 779.13 374.833 781.263 375.9C783.463 376.9 785.197 378.067 786.463 379.4C787.797 380.667 788.73 382.133 789.263 383.8C789.797 385.467 790.063 387.333 790.063 389.4C790.063 392.4 789.197 395.1 787.463 397.5C785.797 399.833 783.53 401.667 780.663 403C777.797 404.333 774.597 405 771.063 405ZM825.915 405C820.515 405 815.715 403.867 811.515 401.6C807.382 399.267 804.115 396.1 801.715 392.1C799.382 388.1 798.215 383.5 798.215 378.3C798.215 374.167 798.882 370.4 800.215 367C801.548 363.6 803.382 360.667 805.715 358.2C808.115 355.667 810.948 353.733 814.215 352.4C817.548 351 821.148 350.3 825.015 350.3C828.415 350.3 831.582 350.967 834.515 352.3C837.448 353.567 839.982 355.333 842.115 357.6C844.315 359.867 845.982 362.567 847.115 365.7C848.315 368.767 848.882 372.133 848.815 375.8L848.715 380.2H805.815L803.515 372H839.815L838.315 373.7V371.3C838.115 369.1 837.382 367.133 836.115 365.4C834.848 363.667 833.248 362.3 831.315 361.3C829.382 360.3 827.282 359.8 825.015 359.8C821.415 359.8 818.382 360.5 815.915 361.9C813.448 363.233 811.582 365.233 810.315 367.9C809.048 370.5 808.415 373.733 808.415 377.6C808.415 381.267 809.182 384.467 810.715 387.2C812.248 389.867 814.415 391.933 817.215 393.4C820.015 394.867 823.248 395.6 826.915 395.6C829.515 395.6 831.915 395.167 834.115 394.3C836.382 393.433 838.815 391.867 841.415 389.6L846.615 396.9C845.015 398.5 843.048 399.9 840.715 401.1C838.448 402.3 836.015 403.267 833.415 404C830.882 404.667 828.382 405 825.915 405ZM864.209 405.1C862.009 405.1 860.309 404.467 859.109 403.2C857.909 401.867 857.309 400 857.309 397.6C857.309 395.4 857.942 393.6 859.209 392.2C860.475 390.8 862.142 390.1 864.209 390.1C866.409 390.1 868.109 390.767 869.309 392.1C870.509 393.367 871.109 395.2 871.109 397.6C871.109 399.8 870.475 401.6 869.209 403C867.942 404.4 866.275 405.1 864.209 405.1ZM940.59 404.6C935.19 404.6 930.357 403.433 926.09 401.1C921.823 398.7 918.457 395.433 915.99 391.3C913.59 387.1 912.39 382.367 912.39 377.1V333.9H923.19V376.2C923.19 379.6 923.99 382.667 925.59 385.4C927.19 388.067 929.29 390.2 931.89 391.8C934.557 393.4 937.457 394.2 940.59 394.2C943.923 394.2 946.923 393.4 949.59 391.8C952.323 390.2 954.49 388.067 956.09 385.4C957.69 382.667 958.49 379.6 958.49 376.2V333.9H968.79V377.1C968.79 382.367 967.557 387.1 965.09 391.3C962.69 395.433 959.357 398.7 955.09 401.1C950.823 403.433 945.99 404.6 940.59 404.6ZM991.313 404V338.1H1001.61V404H991.313ZM980.413 361.5V351.5H1013.81V361.5H980.413ZM1024.89 404V351.5H1035.19V404H1024.89ZM1029.89 339.9C1027.69 339.9 1025.99 339.333 1024.79 338.2C1023.59 337.067 1022.99 335.467 1022.99 333.4C1022.99 331.467 1023.59 329.9 1024.79 328.7C1026.06 327.5 1027.76 326.9 1029.89 326.9C1032.09 326.9 1033.79 327.467 1034.99 328.6C1036.19 329.733 1036.79 331.333 1036.79 333.4C1036.79 335.333 1036.16 336.9 1034.89 338.1C1033.69 339.3 1032.03 339.9 1029.89 339.9ZM1051.22 404V330H1061.52V404H1051.22ZM1077.82 404V351.5H1088.12V404H1077.82ZM1082.82 339.9C1080.62 339.9 1078.92 339.333 1077.72 338.2C1076.52 337.067 1075.92 335.467 1075.92 333.4C1075.92 331.467 1076.52 329.9 1077.72 328.7C1078.99 327.5 1080.69 326.9 1082.82 326.9C1085.02 326.9 1086.72 327.467 1087.92 328.6C1089.12 329.733 1089.72 331.333 1089.72 333.4C1089.72 335.333 1089.09 336.9 1087.82 338.1C1086.62 339.3 1084.96 339.9 1082.82 339.9ZM1121.45 405C1117.05 405 1113.09 404.233 1109.55 402.7C1106.02 401.167 1103.09 398.9 1100.75 395.9L1107.75 389.9C1109.75 392.233 1111.92 393.933 1114.25 395C1116.65 396 1119.35 396.5 1122.35 396.5C1123.55 396.5 1124.65 396.367 1125.65 396.1C1126.72 395.767 1127.62 395.3 1128.35 394.7C1129.15 394.1 1129.75 393.4 1130.15 392.6C1130.55 391.733 1130.75 390.8 1130.75 389.8C1130.75 388.067 1130.12 386.667 1128.85 385.6C1128.19 385.133 1127.12 384.633 1125.65 384.1C1124.25 383.5 1122.42 382.9 1120.15 382.3C1116.29 381.3 1113.12 380.167 1110.65 378.9C1108.19 377.633 1106.29 376.2 1104.95 374.6C1103.95 373.333 1103.22 371.967 1102.75 370.5C1102.29 368.967 1102.05 367.3 1102.05 365.5C1102.05 363.3 1102.52 361.3 1103.45 359.5C1104.45 357.633 1105.79 356.033 1107.45 354.7C1109.19 353.3 1111.19 352.233 1113.45 351.5C1115.79 350.767 1118.25 350.4 1120.85 350.4C1123.32 350.4 1125.75 350.733 1128.15 351.4C1130.62 352.067 1132.89 353.033 1134.95 354.3C1137.02 355.567 1138.75 357.067 1140.15 358.8L1134.25 365.3C1132.99 364.033 1131.59 362.933 1130.05 362C1128.59 361 1127.09 360.233 1125.55 359.7C1124.02 359.167 1122.62 358.9 1121.35 358.9C1119.95 358.9 1118.69 359.033 1117.55 359.3C1116.42 359.567 1115.45 359.967 1114.65 360.5C1113.92 361.033 1113.35 361.7 1112.95 362.5C1112.55 363.3 1112.35 364.2 1112.35 365.2C1112.42 366.067 1112.62 366.9 1112.95 367.7C1113.35 368.433 1113.89 369.067 1114.55 369.6C1115.29 370.133 1116.39 370.7 1117.85 371.3C1119.32 371.9 1121.19 372.467 1123.45 373C1126.79 373.867 1129.52 374.833 1131.65 375.9C1133.85 376.9 1135.59 378.067 1136.85 379.4C1138.19 380.667 1139.12 382.133 1139.65 383.8C1140.19 385.467 1140.45 387.333 1140.45 389.4C1140.45 392.4 1139.59 395.1 1137.85 397.5C1136.19 399.833 1133.92 401.667 1131.05 403C1128.19 404.333 1124.99 405 1121.45 405ZM1176.31 405C1170.91 405 1166.11 403.867 1161.91 401.6C1157.77 399.267 1154.51 396.1 1152.11 392.1C1149.77 388.1 1148.61 383.5 1148.61 378.3C1148.61 374.167 1149.27 370.4 1150.61 367C1151.94 363.6 1153.77 360.667 1156.11 358.2C1158.51 355.667 1161.34 353.733 1164.61 352.4C1167.94 351 1171.54 350.3 1175.41 350.3C1178.81 350.3 1181.97 350.967 1184.91 352.3C1187.84 353.567 1190.37 355.333 1192.51 357.6C1194.71 359.867 1196.37 362.567 1197.51 365.7C1198.71 368.767 1199.27 372.133 1199.21 375.8L1199.11 380.2H1156.21L1153.91 372H1190.21L1188.71 373.7V371.3C1188.51 369.1 1187.77 367.133 1186.51 365.4C1185.24 363.667 1183.64 362.3 1181.71 361.3C1179.77 360.3 1177.67 359.8 1175.41 359.8C1171.81 359.8 1168.77 360.5 1166.31 361.9C1163.84 363.233 1161.97 365.233 1160.71 367.9C1159.44 370.5 1158.81 373.733 1158.81 377.6C1158.81 381.267 1159.57 384.467 1161.11 387.2C1162.64 389.867 1164.81 391.933 1167.61 393.4C1170.41 394.867 1173.64 395.6 1177.31 395.6C1179.91 395.6 1182.31 395.167 1184.51 394.3C1186.77 393.433 1189.21 391.867 1191.81 389.6L1197.01 396.9C1195.41 398.5 1193.44 399.9 1191.11 401.1C1188.84 402.3 1186.41 403.267 1183.81 404C1181.27 404.667 1178.77 405 1176.31 405ZM1214.6 405.1C1212.4 405.1 1210.7 404.467 1209.5 403.2C1208.3 401.867 1207.7 400 1207.7 397.6C1207.7 395.4 1208.33 393.6 1209.6 392.2C1210.87 390.8 1212.53 390.1 1214.6 390.1C1216.8 390.1 1218.5 390.767 1219.7 392.1C1220.9 393.367 1221.5 395.2 1221.5 397.6C1221.5 399.8 1220.87 401.6 1219.6 403C1218.33 404.4 1216.67 405.1 1214.6 405.1Z" fill="#96F8D5"/>
<path d="M599.568 227.538C594.506 224.65 594.528 217.345 599.606 214.487L661.344 179.744C663.637 178.454 666.439 178.46 668.727 179.759L731.315 215.307C736.413 218.202 736.367 225.563 731.235 228.395L668.75 262.873C666.462 264.136 663.681 264.116 661.41 262.82L599.568 227.538Z" fill="#4C35D6" stroke="#96F8D5" stroke-width="5"/>
<path d="M600.18 208.854C595.118 205.966 595.14 198.661 600.219 195.803L661.957 161.06C664.25 159.77 667.051 159.776 669.339 161.075L731.928 196.623C737.025 199.518 736.98 206.879 731.847 209.711L669.363 244.189C667.074 245.451 664.293 245.432 662.023 244.136L600.18 208.854Z" fill="#4C35D6" stroke="#96F8D5" stroke-width="5"/>
<path d="M600.718 190.311C595.656 187.424 595.678 180.119 600.756 177.261L662.494 142.518C664.787 141.228 667.589 141.233 669.877 142.533L732.465 178.081C737.562 180.976 737.517 188.337 732.385 191.169L669.9 225.647C667.612 226.909 664.831 226.889 662.56 225.594L600.718 190.311Z" fill="#4C35D6" stroke="#96F8D5" stroke-width="5"/>
<path d="M600.18 169.619C595.118 166.732 595.14 159.427 600.219 156.569L661.957 121.826C664.25 120.536 667.051 120.541 669.339 121.841L731.928 157.389C737.025 160.284 736.98 167.645 731.847 170.477L669.363 204.955C667.074 206.217 664.293 206.198 662.023 204.902L600.18 169.619Z" fill="#4C35D6" stroke="#96F8D5" stroke-width="5"/>
</svg>
